<?xml version="1.0" encoding="utf-8"?>
<!-- Generator: Adobe Illustrator 19.2.1, SVG Export Plug-In . SVG Version: 6.00 Build 0)  -->
<svg version="1.1" id="Calque_1" xmlns="http://www.w3.org/2000/svg" xmlns:xlink="http://www.w3.org/1999/xlink" x="0px" y="0px"
	 viewBox="0 0 132 113.3" style="enable-background:new 0 0 132 113.3;" xml:space="preserve">
<style type="text/css">
	.st0{fill:#13CA60;}
</style>
<g>
	<g>
		<path class="st0" d="M86.9,111.8c0.2,0.2,0.2,0.4,0.2,0.4v0.6c0,0.3-0.2,0.5-0.5,0.5H45.4c-0.3,0-0.5-0.2-0.5-0.5v-0.5
			c0,0,0-0.2,0.2-0.4c0.2-0.2,5.7-5.2,6.4-6.5c0.4-0.8,0.7-6,0.9-10.1h27.3c0.2,4.1,0.5,9.5,0.8,10
			C80.9,106.1,86.8,111.7,86.9,111.8z"/>
		<path class="st0" d="M126,0H6C2.7,0,0,2.7,0,6v79.8c0,3.3,2.7,6,6,6h120c3.3,0,6-2.7,6-6V6C132,2.7,129.3,0,126,0z M5.2,88.9
			c-1.4,0-2.6-1.2-2.6-2.6s1.2-2.6,2.6-2.6s2.6,1.2,2.6,2.6S6.7,88.9,5.2,88.9z M5.2,7.6C3.8,7.6,2.6,6.4,2.6,5s1.2-2.6,2.6-2.6
			S7.8,3.6,7.8,5S6.7,7.6,5.2,7.6z M123.5,84H8.5V7.8h115V84z M126.9,89.1c-1.4,0-2.6-1.2-2.6-2.6s1.2-2.6,2.6-2.6s2.6,1.2,2.6,2.6
			S128.3,89.1,126.9,89.1z M126.9,7.6c-1.4,0-2.6-1.2-2.6-2.6s1.2-2.6,2.6-2.6s2.6,1.2,2.6,2.6S128.3,7.6,126.9,7.6z"/>
	</g>
	<g>
		<g>
			<path class="st0" d="M88,60.5c-12.3-12.3-32.3-12.3-44.5,0c-1.8,1.8-1.8,4.6,0,6.4s4.6,1.8,6.4,0c8.8-8.8,23-8.8,31.8,0
				c1.8,1.8,4.6,1.8,6.4,0C89.8,65.1,89.8,62.3,88,60.5z"/>
		</g>
		<path class="st0" d="M52.3,23.2c3.5,0,6.3,2.8,6.3,6.3s-2.8,6.3-6.3,6.3S46,33,46,29.5S48.8,23.2,52.3,23.2z"/>
		<path class="st0" d="M78.3,23.2c3.5,0,6.3,2.8,6.3,6.3s-2.8,6.3-6.3,6.3S72,33,72,29.5S74.8,23.2,78.3,23.2z"/>
	</g>
</g>
</svg>
